<svg width="64" height="64" viewBox="0 0 64 64" fill="none" xmlns="http://www.w3.org/2000/svg">
<g clip-path="url(#clip0_2001_394)">
<path d="M32 36C16.2964 36 13 43.6133 13 50C13 53.085 13.7412 55.3042 15.2666 56.7852C17.9292 59.3706 22.5054 59.2352 27.8057 59.0811C30.4957 59.002 33.5039 59.002 36.1943 59.0811C37.4268 59.1172 38.6191 59.1523 39.7578 59.1523C43.5178 59.1523 46.6895 58.77 48.7334 56.7852C50.2588 55.3042 51 53.085 51 50C51 43.6133 47.7036 36 32 36ZM47.34 55.35C45.2839 57.3466 41.0983 57.2235 36.2531 57.0819C34.8892 57.0415 33.4648 57 32 57C30.5352 57 29.1108 57.0415 27.7466 57.082C22.9028 57.2251 18.7166 57.3472 16.6597 55.3501C15.543 54.2656 15 52.5156 15 50C15 41.9253 20.5605 38 32 38C43.4395 38 49 41.9253 49 50C49 52.5156 48.457 54.2656 47.34 55.35Z" fill="#100F0D"/>
<path d="M20.0002 27.9999C20.6908 27.9933 21.3724 27.8432 22.0019 27.5592C22.8739 29.4796 24.2806 31.1083 26.0536 32.2504C27.8267 33.3926 29.8911 34 32.0002 34C34.1093 34 36.1738 33.3926 37.9469 32.2504C39.7199 31.1083 41.1265 29.4796 41.9985 27.5592C42.6348 27.8404 43.3229 27.9854 44.0186 27.9848C44.7142 27.9842 45.402 27.838 46.0378 27.5557C46.6736 27.2734 47.2433 26.8611 47.7103 26.3455C48.1772 25.8299 48.5311 25.2222 48.7492 24.5616C48.9673 23.901 49.0447 23.2021 48.9766 22.5098C48.9084 21.8175 48.6962 21.1471 48.3534 20.5418C48.0107 19.9364 47.5451 19.4094 46.9866 18.9948C46.428 18.5801 45.7889 18.2869 45.1102 18.1339C44.1206 15.454 42.3333 13.1418 39.9893 11.5086C37.6453 9.87552 34.8571 9 32.0002 9C29.1434 9 26.3552 9.87552 24.0112 11.5086C21.6671 13.1418 19.8799 15.454 18.8902 18.1339C17.6918 18.4058 16.6357 19.11 15.9239 20.1117C15.212 21.1134 14.8944 22.3423 15.0318 23.5635C15.1692 24.7846 15.7519 25.9123 16.6686 26.7308C17.5852 27.5493 18.7714 28.0011 20.0002 27.9999ZM32.0002 31.9999C30.2202 31.9999 28.4801 31.4721 27.0001 30.4832C25.5201 29.4942 24.3665 28.0886 23.6853 26.4441C23.0041 24.7996 22.8259 22.99 23.1732 21.2441C23.5204 19.4983 24.3776 17.8947 25.6363 16.636C26.8949 15.3773 28.4986 14.5201 30.2444 14.1729C31.9903 13.8256 33.7999 14.0038 35.4444 14.685C37.0889 15.3662 38.4945 16.5198 39.4835 17.9998C40.4724 19.4799 41.0002 21.2199 41.0002 22.9999C40.9976 25.3861 40.0485 27.6737 38.3613 29.361C36.674 31.0482 34.3864 31.9973 32.0002 31.9999ZM47.0002 22.9999C46.9994 23.7953 46.683 24.5579 46.1206 25.1203C45.5582 25.6827 44.7956 25.9991 44.0002 25.9999C43.5333 25.9984 43.0734 25.8863 42.658 25.6729C43.1143 23.9201 43.1143 22.0797 42.658 20.3269C43.0734 20.1136 43.5333 20.0015 44.0002 19.9999C44.7956 20.0008 45.5582 20.3172 46.1206 20.8796C46.683 21.442 46.9994 22.2046 47.0002 22.9999ZM32.0002 10.9999C34.3208 10.9957 36.5923 11.6673 38.5374 12.9329C40.4824 14.1985 42.0167 16.0031 42.9529 18.1264C42.6251 18.199 42.3053 18.3042 41.9985 18.4406C41.1265 16.5203 39.7199 14.8916 37.9469 13.7495C36.1738 12.6073 34.1093 11.9999 32.0002 11.9999C29.8911 11.9999 27.8267 12.6073 26.0536 13.7495C24.2806 14.8916 22.8739 16.5203 22.0019 18.4406C21.6951 18.3042 21.3754 18.199 21.0475 18.1264C21.9837 16.0031 23.5181 14.1985 25.4631 12.9329C27.4082 11.6673 29.6797 10.9957 32.0002 10.9999ZM20.0002 19.9999C20.4672 20.0015 20.9271 20.1136 21.3424 20.3269C20.8862 22.0797 20.8862 23.9201 21.3424 25.6729C20.9271 25.8863 20.4672 25.9984 20.0002 25.9999C19.2046 25.9999 18.4415 25.6839 17.8789 25.1213C17.3163 24.5587 17.0002 23.7956 17.0002 22.9999C17.0002 22.2043 17.3163 21.4412 17.8789 20.8786C18.4415 20.316 19.2046 19.9999 20.0002 19.9999Z" fill="#100F0D"/>
</g>
<defs>
<clipPath id="clip0_2001_394">
<rect width="64" height="64" fill="white"/>
</clipPath>
</defs>
</svg>
