<svg preserveAspectRatio="none" width="100%" height="100%" overflow="visible" style="display: block;" viewBox="0 0 47.2501 33.25" fill="none" xmlns="http://www.w3.org/2000/svg">
<g id="Layer 27">
<path id="Vector" d="M47.0424 16.0593C46.9603 15.9623 46.8581 15.8843 46.7429 15.8309C46.6276 15.7775 46.502 15.7499 46.375 15.75H39.5325L41.9877 1.01859C42.0085 0.893293 42.0018 0.764964 41.9681 0.642513C41.9343 0.520063 41.8743 0.406428 41.7922 0.309502C41.7101 0.212577 41.6079 0.134685 41.4927 0.0812377C41.3775 0.0277905 41.252 6.91148e-05 41.125 5.83254e-08H25.375C25.1678 -7.5575e-05 24.9673 0.0734091 24.8093 0.20736C24.6512 0.34131 24.5459 0.527025 24.512 0.731413L22.0089 15.75H14.875C14.6678 15.7499 14.4673 15.8234 14.3093 15.9574C14.1512 16.0913 14.0459 16.277 14.012 16.4814L11.387 32.2314C11.3661 32.3567 11.3728 32.4851 11.4066 32.6076C11.4404 32.73 11.5004 32.8437 11.5825 32.9406C11.6647 33.0376 11.7669 33.1154 11.8822 33.1689C11.9974 33.2223 12.123 33.25 12.25 33.25H43.75C43.9572 33.2501 44.1577 33.1766 44.3157 33.0427C44.4738 32.9087 44.5791 32.723 44.613 32.5186L47.238 16.7686C47.2591 16.6432 47.2525 16.5148 47.2187 16.3923C47.1849 16.2698 47.1247 16.1561 47.0424 16.0593ZM26.1159 1.75H40.0919L37.7591 15.75H23.7831L26.1159 1.75ZM15.6159 17.5H29.5919L28.4255 24.5L27.2589 31.5H13.2831L15.6159 17.5ZM43.0091 31.5H29.0331L30.1995 24.5L31.3661 17.5H45.3419L43.0091 31.5Z" fill="var(--fill-0, #100F0D)"/>
<path id="Vector_2" d="M35.875 6.125C35.875 5.89294 35.7828 5.67038 35.6187 5.50628C35.4546 5.34219 35.2321 5.25 35 5.25H29.75C29.5179 5.25 29.2954 5.34219 29.1313 5.50628C28.9672 5.67038 28.875 5.89294 28.875 6.125C28.875 6.35706 28.9672 6.57962 29.1313 6.74372C29.2954 6.90781 29.5179 7 29.75 7H35C35.2321 7 35.4546 6.90781 35.6187 6.74372C35.7828 6.57962 35.875 6.35706 35.875 6.125Z" fill="var(--fill-0, #100F0D)"/>
<path id="Vector_3" d="M24.5 21H19.25C19.0179 21 18.7954 21.0922 18.6313 21.2563C18.4672 21.4204 18.375 21.6429 18.375 21.875C18.375 22.1071 18.4672 22.3296 18.6313 22.4937C18.7954 22.6578 19.0179 22.75 19.25 22.75H24.5C24.7321 22.75 24.9546 22.6578 25.1187 22.4937C25.2828 22.3296 25.375 22.1071 25.375 21.875C25.375 21.6429 25.2828 21.4204 25.1187 21.2563C24.9546 21.0922 24.7321 21 24.5 21Z" fill="var(--fill-0, #100F0D)"/>
<path id="Vector_4" d="M34.125 21.875C34.125 22.1071 34.2172 22.3296 34.3813 22.4937C34.5454 22.6578 34.7679 22.75 35 22.75H40.25C40.4821 22.75 40.7046 22.6578 40.8687 22.4937C41.0328 22.3296 41.125 22.1071 41.125 21.875C41.125 21.6429 41.0328 21.4204 40.8687 21.2563C40.7046 21.0922 40.4821 21 40.25 21H35C34.7679 21 34.5454 21.0922 34.3813 21.2563C34.2172 21.4204 34.125 21.6429 34.125 21.875Z" fill="var(--fill-0, #100F0D)"/>
<path id="Vector_5" d="M12.25 16.625C12.25 16.3929 12.1578 16.1704 11.9937 16.0063C11.8296 15.8422 11.6071 15.75 11.375 15.75H0.875C0.642936 15.75 0.420376 15.8422 0.256282 16.0063C0.0921874 16.1704 0 16.3929 0 16.625C0 16.8571 0.0921874 17.0796 0.256282 17.2437C0.420376 17.4078 0.642936 17.5 0.875 17.5H11.375C11.6071 17.5 11.8296 17.4078 11.9937 17.2437C12.1578 17.0796 12.25 16.8571 12.25 16.625Z" fill="var(--fill-0, #100F0D)"/>
<path id="Vector_6" d="M0.875 9.625H18.375C18.6071 9.625 18.8296 9.53281 18.9937 9.36872C19.1578 9.20462 19.25 8.98206 19.25 8.75C19.25 8.51794 19.1578 8.29538 18.9937 8.13128C18.8296 7.96719 18.6071 7.875 18.375 7.875H0.875C0.642936 7.875 0.420376 7.96719 0.256282 8.13128C0.0921874 8.29538 0 8.51794 0 8.75C0 8.98206 0.0921874 9.20462 0.256282 9.36872C0.420376 9.53281 0.642936 9.625 0.875 9.625Z" fill="var(--fill-0, #100F0D)"/>
<path id="Vector_7" d="M7 31.5H0.875C0.642936 31.5 0.420376 31.5922 0.256282 31.7563C0.0921874 31.9204 0 32.1429 0 32.375C0 32.6071 0.0921874 32.8296 0.256282 32.9937C0.420376 33.1578 0.642936 33.25 0.875 33.25H7C7.23206 33.25 7.45462 33.1578 7.61872 32.9937C7.78281 32.8296 7.875 32.6071 7.875 32.375C7.875 32.1429 7.78281 31.9204 7.61872 31.7563C7.45462 31.5922 7.23206 31.5 7 31.5Z" fill="var(--fill-0, #100F0D)"/>
<path id="Vector_8" d="M8.75 23.625H0.875C0.642936 23.625 0.420376 23.7172 0.256282 23.8813C0.0921874 24.0454 0 24.2679 0 24.5C0 24.7321 0.0921874 24.9546 0.256282 25.1187C0.420376 25.2828 0.642936 25.375 0.875 25.375H8.75C8.98206 25.375 9.20462 25.2828 9.36872 25.1187C9.53281 24.9546 9.625 24.7321 9.625 24.5C9.625 24.2679 9.53281 24.0454 9.36872 23.8813C9.20462 23.7172 8.98206 23.625 8.75 23.625Z" fill="var(--fill-0, #100F0D)"/>
<path id="Vector_9" d="M0.875 1.75H21C21.2321 1.75 21.4546 1.65781 21.6187 1.49372C21.7828 1.32962 21.875 1.10706 21.875 0.875C21.875 0.642936 21.7828 0.420376 21.6187 0.256282C21.4546 0.0921874 21.2321 0 21 0H0.875C0.642936 0 0.420376 0.0921874 0.256282 0.256282C0.0921874 0.420376 0 0.642936 0 0.875C0 1.10706 0.0921874 1.32962 0.256282 1.49372C0.420376 1.65781 0.642936 1.75 0.875 1.75Z" fill="var(--fill-0, #100F0D)"/>
</g>
</svg>
